# xmcd CD database file generated by GCD 2.94
# 
# Track frame offsets:
#       150
#       11378
#       20070
#       36110
#       44438
#       55695
#       66158
#       81203
#       91448
#       98395
# 
# Disc length: 1468 seconds
# 
# Revision: 3
# Processed by: cddbd v1.4b41PL1 Copyright (c) Steve Scherf et al.
# Submitted via: GCD 2.94
# 
DISCID=7205ba0a
DTITLE=Tumbleweed Ted - Riske Business
DYEAR=1900
DGENRE=
TTITLE0=I Wish We'd Gone Dutch
TTITLE1=Big Bubba
TTITLE2=Kiss A Pig
TTITLE3=Dick and Jane
TTITLE4=Those are the Gays
TTITLE5=Its so hard to Say I love you
TTITLE6=This just ain't your day
TTITLE7=The Rodeo Song
TTITLE8=All the Girls are Turning Dyke
TTITLE9=The Auctioneer
EXTD=
EXTT0=
EXTT1=
EXTT2=
EXTT3=
EXTT4=
EXTT5=
EXTT6=
EXTT7=
EXTT8=
EXTT9=
PLAYORDER=
